<svg width="37" height="40" viewBox="0 0 37 40" fill="none" xmlns="http://www.w3.org/2000/svg">
<path d="M12.5801 35.6025H24.4209C24.9973 35.6025 25.5504 35.8313 25.958 36.2393C26.3655 36.6471 26.5946 37.2005 26.5947 37.7773C26.5947 38.3543 26.3656 38.9085 25.958 39.3164C25.5504 39.7243 24.9972 39.9531 24.4209 39.9531H12.5801C12.0037 39.9531 11.4505 39.7243 11.043 39.3164C10.6354 38.9085 10.4063 38.3543 10.4062 37.7773C10.4064 37.2005 10.6355 36.6471 11.043 36.2393C11.4505 35.8314 12.0037 35.6025 12.5801 35.6025ZM18.5 0.046875C22.6094 0.046875 26.5512 1.6805 29.457 4.58887C32.3629 7.49731 33.9951 11.4425 33.9951 15.5557C33.9951 20.2954 34.8483 24.2733 36.46 27.0479C36.7821 27.6054 36.9525 28.2377 36.9531 28.8818C36.9538 29.526 36.7849 30.1595 36.4639 30.7178C36.1467 31.2762 35.6865 31.7402 35.1309 32.0615C34.5754 32.3827 33.9442 32.5498 33.3027 32.5459H3.69824C3.0558 32.5508 2.42377 32.3837 1.86719 32.0625C1.31044 31.7411 0.848848 31.277 0.53125 30.7178C0.21157 30.1587 0.0446348 29.525 0.046875 28.8809C0.0491193 28.2368 0.220484 27.6046 0.543945 27.0479C2.15558 24.2733 3.00585 20.2972 3.00586 15.5557C3.00586 11.4425 4.63812 7.49731 7.54395 4.58887C10.4496 1.68062 14.3908 0.0470011 18.5 0.046875ZM18.5 4.39746C15.5435 4.39759 12.7077 5.57359 10.6172 7.66602C8.52678 9.75851 7.35254 12.5966 7.35254 15.5557C7.35253 20.5768 6.52201 24.8029 4.88867 28.1279L4.85547 28.1953H32.1436L32.1104 28.1279C30.477 24.8029 29.6484 20.5749 29.6484 15.5557C29.6484 12.5966 28.4742 9.75851 26.3838 7.66602C24.2931 5.57348 21.4566 4.39746 18.5 4.39746Z" fill="#475569" stroke="#475569" stroke-width="0.09375"/>
</svg>
