<svg width="40" height="37" viewBox="0 0 40 37" fill="none" xmlns="http://www.w3.org/2000/svg">
<path d="M19.998 9.63965C22.363 9.64235 24.6305 10.5764 26.3027 12.2373C27.975 13.8984 28.9162 16.151 28.9189 18.5C28.9189 20.2524 28.3952 21.9658 27.415 23.4229C26.435 24.8797 25.0419 26.0149 23.4121 26.6855C21.7821 27.3562 19.9882 27.5323 18.2578 27.1904C16.5275 26.8485 14.9379 26.0047 13.6904 24.7656C12.4429 23.5264 11.5932 21.9472 11.249 20.2285C10.9049 18.5099 11.0818 16.7283 11.7568 15.1094C12.4319 13.4904 13.5752 12.1065 15.042 11.1328C16.5089 10.1592 18.2338 9.63969 19.998 9.63965ZM21.8643 14.0254C20.9734 13.6589 19.9925 13.5631 19.0469 13.75C18.1013 13.9369 17.2325 14.398 16.5508 15.0752C15.8691 15.7524 15.405 16.6153 15.2168 17.5547C15.0287 18.4942 15.1251 19.4685 15.4941 20.3535C15.8632 21.2385 16.4883 21.9952 17.29 22.5273C18.0916 23.0593 19.0341 23.3427 19.998 23.3428C21.2909 23.3428 22.531 22.833 23.4453 21.9248C24.3597 21.0166 24.874 19.7846 24.874 18.5C24.874 17.5421 24.5874 16.606 24.0518 15.8096C23.5161 15.0132 22.7549 14.3919 21.8643 14.0254ZM6.21875 26.2686L6.19434 26.2549L1.39746 23.54C1.14499 23.3979 0.925929 23.2033 0.755859 22.9697C0.585756 22.7361 0.467958 22.4683 0.411133 22.1855C-0.0747962 19.7539 -0.0748187 17.251 0.411133 14.8193C0.467489 14.5361 0.58489 14.2684 0.754883 14.0342C0.925007 13.7999 1.14449 13.6045 1.39746 13.4619L6.18262 10.7539L6.20605 10.7402V10.7129L6.23047 5.34473C6.23177 5.05468 6.29659 4.76781 6.41992 4.50488C6.54325 4.24214 6.72265 4.00879 6.94531 3.82129C8.87118 2.19872 11.0894 0.953666 13.4824 0.152344C13.7504 0.0625138 14.0348 0.0297066 14.3164 0.0556641C14.598 0.081636 14.8714 0.165491 15.1182 0.302734L19.9756 2.99902L19.998 3.01172L20.0215 2.99902L24.8789 0.304688C25.1253 0.16822 25.3977 0.0842539 25.6787 0.0585938C25.9597 0.0329303 26.2434 0.0666574 26.5107 0.15625C28.903 0.954256 31.1213 2.19537 33.0479 3.81445C33.2714 4.00227 33.4516 4.23645 33.5752 4.5C33.6987 4.76339 33.7636 5.05028 33.7646 5.34082L33.7832 10.7041V10.7314L33.8066 10.7451L38.5996 13.46C38.8525 13.602 39.0718 13.7966 39.2422 14.0303C39.4126 14.2639 39.5299 14.5316 39.5869 14.8145C40.074 17.2459 40.0756 19.7488 39.5908 22.1807C39.5345 22.4638 39.417 22.7316 39.2471 22.9658C39.1195 23.1415 38.9643 23.2959 38.7881 23.4219L38.6045 23.5381L33.8086 26.2461L33.7852 26.2598V26.2871L33.7607 31.6553C33.7594 31.9453 33.6946 32.2322 33.5713 32.4951C33.448 32.7578 33.2685 32.9912 33.0459 33.1787C31.12 34.8013 28.9018 36.0463 26.5088 36.8477C26.2408 36.9375 25.9564 36.9703 25.6748 36.9443C25.3934 36.9184 25.1206 36.8344 24.874 36.6973L20.0215 34.001L19.998 33.9883L19.9756 34.001L15.123 36.6953C14.8767 36.8318 14.6042 36.9157 14.3232 36.9414C14.0422 36.9671 13.7586 36.9333 13.4912 36.8438C11.0989 36.0458 8.88065 34.8046 6.9541 33.1855C6.73057 32.9977 6.5504 32.7636 6.42676 32.5C6.3032 32.2366 6.23837 31.9498 6.2373 31.6592L6.21875 26.2959V26.2686ZM29.7227 6.31445L29.7041 6.30078C28.5815 5.46751 27.3528 4.78417 26.0508 4.26953L26.0303 4.26172L26.0107 4.27246L21.3242 6.87402C21.0079 7.0481 20.6506 7.13545 20.2891 7.12695H19.6934C19.3313 7.13652 18.9731 7.04902 18.6572 6.87305V6.87207L13.9756 4.27051L13.9561 4.25977L13.9355 4.26758C12.636 4.78264 11.4103 5.46681 10.291 6.30078L10.2725 6.31445V6.33789L10.2529 11.5332L10.2471 11.6729C10.2226 11.9974 10.119 12.3118 9.94434 12.5889V12.5898C9.84273 12.7524 9.74398 12.9139 9.65039 13.0859C9.47019 13.4061 9.20497 13.6713 8.88379 13.8525L4.24805 16.4707L4.22754 16.4814L4.22461 16.5049C4.04385 17.8299 4.04389 19.1731 4.22461 20.498L4.22754 20.5215L4.24805 20.5332L8.88672 23.166C9.2073 23.3459 9.47263 23.6096 9.65234 23.9287C9.74588 24.0956 9.84611 24.2625 9.94629 24.4238V24.4248C10.1462 24.742 10.2533 25.1083 10.2549 25.4824L10.2734 30.6621V30.6855L10.293 30.6992C11.4155 31.5325 12.6433 32.2158 13.9453 32.7305L13.9658 32.7383L13.9854 32.7275L18.6729 30.1309L18.6719 30.1299C18.988 29.9559 19.3457 29.8695 19.707 29.8779H20.3516C20.6975 29.878 21.0381 29.9669 21.3398 30.1348L26.0215 32.7363L26.041 32.7471L26.0615 32.7393C27.3614 32.222 28.5871 31.5356 29.7061 30.6992L29.7246 30.6855V30.6621L29.749 25.4668C29.7509 25.0933 29.8571 24.7277 30.0566 24.4111V24.4102C30.1075 24.3288 30.1578 24.248 30.207 24.166L30.3516 23.915C30.5087 23.6341 30.7313 23.3954 31 23.2188L31.1182 23.1475L35.7539 20.5293L35.7734 20.5186L35.7773 20.4951C35.957 19.1675 35.9546 17.8213 35.7715 16.4941L35.7686 16.4717L35.748 16.46L31.1094 13.834C30.7889 13.6541 30.5244 13.3903 30.3447 13.0713C30.2512 12.9043 30.15 12.7375 30.0498 12.5762V12.5752C29.85 12.2581 29.7437 11.8916 29.7422 11.5176L29.7227 6.33789V6.31445Z" fill="#475569" stroke="#475569" stroke-width="0.09375"/>
</svg>
